<svg xmlns="http://www.w3.org/2000/svg" viewBox="0 0 254.89 42.36"><defs><style>.cls-1{fill:#1b9d6f;}.cls-2{fill:#ffb300;}.cls-2,.cls-4{fill-rule:evenodd;}.cls-3{fill:#ff1a00;}.cls-4{fill:#2166ac;}.cls-5,.cls-6{font-size:17.57px;fill:#fff;font-family:NanumSquareB, NanumSquare;}.cls-5{letter-spacing:0.1em;}.cls-6{letter-spacing:0.02em;}</style></defs><g id="레이어_2" data-name="레이어 2"><g id="레이어_1-2" data-name="레이어 1"><path class="cls-1" d="M24.1,24.05c0-.4-.12-.89-.13-1.05-.24-6.37-2.57-8.15-3.22-8.48-1.69-1.21-3.75.08-4.91,1.83a4.85,4.85,0,0,0-.72.79c-.9-3.36-2.82-4.62-3.34-4.77-.13,0-1-.44-1.46-.18A5.37,5.37,0,0,0,8,13c-.27.13-.29.39-.56.48a17.23,17.23,0,0,0-5.83,9.24,5.68,5.68,0,0,0-.22,1.86c.2,0,.36.56.61.46,0,.39.89-.11.75.29.39.28.8,0,1.24-.06a4.44,4.44,0,0,0,2.39-1.41c.73-.33.66-.66,1-1.25.3-.12.08-.39.31-.58a8.11,8.11,0,0,1,.67-1.67c.08,0,.26-.15.39-.45,0,0,.73-1.91,1.93-2a1.67,1.67,0,0,1,1.46.93c1.18,1.75.93,2.34,1.69,3a1.75,1.75,0,0,0,1.82,0c.16-.33.43-.16.63-.48s.5-.25.57-.59a17.7,17.7,0,0,0,.95-1.51A2.57,2.57,0,0,1,19.7,18c.57,0,.67.44,1,.71.75-.43,2,3.23,2.08,3.25a.33.33,0,0,1,.15.14,8.27,8.27,0,0,1,.37,1.16s0,.09.08.09.05-.05.05-.08.05-.16,0-.22,0,0,0-.08,0,0,0-.07l0,0s0-.05,0-.06h0v0c0,.06.13.11.14.16s0,.08,0,.13.08.16.09.25,0,0,0,0,.05.12.11.21l0,.1a.28.28,0,0,0,0,.09c0,.08.11.17.12.25s0,0,.05,0Z"/><path class="cls-2" d="M33.24,19.84c.06.37.08.82.08.82s-.13.48,0,.44c0,.77-.07,1-.08,1.57v0a1.12,1.12,0,0,1,0,.32c.1,0,0,.17,0,.24a3.12,3.12,0,0,1,0,.36s0,.08,0,.11a8.83,8.83,0,0,1-.2,2c-.1.63-.22,1.23-.37,1.83a5.21,5.21,0,0,1-.22,1c0,.25-.71,1.74-.78,1.95a3.12,3.12,0,0,1-.3.83s-.14.26-.22.38l-.07.12A4.88,4.88,0,0,1,30,33.52a13.51,13.51,0,0,1-1.15,1.62,3.08,3.08,0,0,1-.53.65,10.53,10.53,0,0,1-1.2,1.13,2.21,2.21,0,0,0-.55.58c-.14,0-.35.45-.47.27-1.1.78-.59.53-1.42,1.1-.11.07-.25,0-.32.28-.25.11-.65.55-.95.52-.19.13-.71.43-.9.55s-.09.05-.12.1-.71.43-.85.35l-.84.43s-.71.29-1.15.43l-.09,0c-.32.06-.57.28-.88.27-.14.06-.3,0-.43.13-.37.09-.72.29-1,.33a3.37,3.37,0,0,1-.77,0,3.13,3.13,0,0,0,.67-.23.41.41,0,0,0,.24-.14s.06,0,.09,0c.31-.18.62-.21.94-.38.59-.14,1-.65,1.57-.68a2,2,0,0,1,.78-.46,11.32,11.32,0,0,0,1.05-.69,4.64,4.64,0,0,0,.71-.55,3.79,3.79,0,0,1,.35-.32c.11-.13,0-.24-.28-.11A4,4,0,0,1,22,39a.54.54,0,0,0-.17,0c-.05,0-.18.09-.23.1a.93.93,0,0,1-.12.29s-.21.1-.23.14l-.06.06s-.05,0-.07,0-.11,0-.17,0l0,0h0a.09.09,0,0,0-.07,0s0,.08-.07.12a.44.44,0,0,1-.17.12c-.13,0-.14.12-.26.16s-.19.06-.29.13-.12,0-.16,0-.19.12-.26.21-.17.07-.28.08-.21.09-.34.19c-.09-.12-.14.09-.23,0-.25.14-.58.18-.8.4-.37.05-.57.2-1,.26-.22-.19-.43.22-.6.3s-.06,0-.11,0c-.23.32-.49,0-.78.22-.15-.13-.42.07-.47,0s0,0-.16,0-.1,0-.11.09-.14.06-.2,0-.08.16-.22.18a.7.7,0,0,0-.43,0c-.58-.06-.36.15-.59.09,0,0-.15,0-.13,0s-.13.07-.29,0c0,0-.18,0-.13,0s-.12,0-.15,0a3.58,3.58,0,0,1-.55-.1,16.47,16.47,0,0,0,3.81-1.06c.06-.13.15-.1.25-.11.25-.12,2.08-1,2.34-1.09,0-.16.13,0,.19-.12s.22,0,.28-.16.33-.12.31-.18a1.16,1.16,0,0,0,.4-.23c.08-.15.5-.29.63-.35s.85-.48.84-.58a20.75,20.75,0,0,0,3.52-2.92c.06-.06.24-.15.29-.21a3.71,3.71,0,0,0,.32-.23c.06-.06,0-.15,0-.22.27-.29.53-.6.78-.91.05-.06.35-.26.39-.32.3-.37.33-.61.6-1s.52-.79.75-1.19.37-.66.53-1A12.92,12.92,0,0,0,29.46,27a20.32,20.32,0,0,1-2.21,3.67c-.09.13-.26.19-.35.32s-.12.3-.21.42l-.17.21a31.18,31.18,0,0,1-5.38,4.56c-.36.19-1.29.7-1.37.76s-.16.17-.27.17a.78.78,0,0,0-.34.19c-.13.06-.47.18-.9.32a9.46,9.46,0,0,0,2-1.42c0-.26-.83.5-1.77,1-.18.08-.38.21-.56.29s-.1.08-.13.12a.43.43,0,0,0-.42.06c-.12,0-.4.29-.52.2l-.7.26s-.64.18-1,.26l-.09,0c-.27,0-.51.18-.76.15a2.71,2.71,0,0,0-.41.09,7.54,7.54,0,0,1-1.49.15l1.24-.21c.24-.1.57-.1.82-.18.45,0,.79-.36,1.24-.32a1.49,1.49,0,0,1,.57-.3A11.07,11.07,0,0,0,18,37c.33-.15,1.52-1.16,1.2-1.06s-1,.65-1.17.68-.56,0-.7.09-.13.22-.26.28-.13.15-.18.14-.35.15-.52.28-.1-.05-.17,0l0,0s-.07,0-.11,0a.75.75,0,0,1-.33.17c0-.12-.09.05-.15,0s-.08,0-.13,0,0,0,0,0h0a.17.17,0,0,1-.11.06c-.07,0-.14.06-.21,0a.48.48,0,0,0-.31,0c-.06.15-.13,0-.2.11s0,0,0,0,0,0,0,0a4.51,4.51,0,0,1-.78.21s0-.08,0-.05a0,0,0,0,0,0,.05c-.1,0-.16-.07-.26,0s0-.06,0-.09c-.42.22-.42.07-.79.16-.06,0-.17.15-.21.06a2.42,2.42,0,0,1-.59-.09,20,20,0,0,0,2-.46s.07.06.1,0,0,0,0,0a1.21,1.21,0,0,1,.37-.14,11.88,11.88,0,0,1,1.16-.44c.25-.18.72-.25,1-.45s1.62-.86,1.79-1a26,26,0,0,0,3.07-2.17c.52-.39,1.12-.87,1.63-1.3l0,0a6.79,6.79,0,0,1,.89-.9c.18-.22.35-.44.52-.68,0,0,0-.06,0-.07a.41.41,0,0,1,.26-.27l.33-.47a4.14,4.14,0,0,1,.65-1,2.8,2.8,0,0,1,.36-.79c.13-.23.16-.44.27-.67,0,0,0,0,0,0a.46.46,0,0,1,.19-.28c.07-.15.14-.47.2-.61a2.49,2.49,0,0,1,.23-1c.92-5.41-1.22-8.82.64-11.26.24-.25,0-.49-.2-.6a2.41,2.41,0,0,0-.18-.77c.09-.31-.22-.75.24-.93-.05-.23.19,0,.32-.14a.72.72,0,0,1,.5-.08c.14-.06,0-.13.06-.18s.24-.32.33-.36c.42-.05,1.44.05,1.69.57.2.12.13.35.18.52-.17.15.53.49-.09,1a2.38,2.38,0,0,1,1.9,1.46A16.36,16.36,0,0,1,33.24,19.84Z"/><path class="cls-1" d="M34.13,10.13a11.2,11.2,0,0,1-5-.52,14.73,14.73,0,0,1-2.42-1.43c-.22.2-.13.55-.2.82-.27.59-.08.73-.35,1.31.12.22-.26.73-.11.95a10.81,10.81,0,0,1-.64,1.83,4.82,4.82,0,0,1-.89,1.68c-.6,0-.66-.53-1-.84-.23-.14-.15-.55-.35-.72A6.43,6.43,0,0,1,23,10.37a10.66,10.66,0,0,1,1.5-3.43,11.47,11.47,0,0,1-3.66-.74c-.14-.09-.45-.16-.45-.4-.45-.37-1.07-.38-1.53-.9.29-.24.88-.3,1.13-.53a8.66,8.66,0,0,1,4.54,1.38l.18,0c-.3-2.43-.22-4.21.9-5.75.26-.18.52.57.54.86s.31.8.41,1.11c0,.68.61,1.77.35,2.88A13.32,13.32,0,0,1,31.72.94c.56-.16.13,2.62-.46,3.13-.15.18.15.37,0,.54s-.31.31-.17.52a5.14,5.14,0,0,1-1.49,1.48l-.37.24A6,6,0,0,1,34.13,10.13Z"/><path class="cls-3" d="M17.05,12.83c-.9.12-.94-.28-1.45-.36a1.24,1.24,0,0,1-.52-1.13,2.58,2.58,0,0,0,.18-.93,3.05,3.05,0,0,1,.71-1,.87.87,0,0,0,.39-.47A5.5,5.5,0,0,1,18,8c1.45-.39,1.6.37,2,.32a1.9,1.9,0,0,1,.09,2.26c0,.24-.31.49-.45.74a10.47,10.47,0,0,1-1.23,1A4,4,0,0,1,17.05,12.83Z"/><path class="cls-4" d="M16.77,29c-.34,0-.58.06-.94.1a2.73,2.73,0,0,1-.7,0,.49.49,0,0,0-.31.05c-.21.06-.49,0-.7,0a2.53,2.53,0,0,0-.3,0,1.2,1.2,0,0,1-.28,0A53.94,53.94,0,0,0,5.11,30.7c-4.18,1-6.37-1.12-4.35-2.62,2.52-1.72,14.59-3.74,23.68-.06.24.1.48.26-.18.16a3.34,3.34,0,0,0-.5,0l-.1,0a1.85,1.85,0,0,0-.24,0s0,0,0,0-.05,0-.07,0-.09,0-.11,0a1.31,1.31,0,0,1-.27-.06.28.28,0,0,1-.09-.05s-.06,0-.1,0a.46.46,0,0,1-.26,0h0c-.14,0-.32,0-.47,0l-.26-.05c-.49,0-.22.19.12.24a5.21,5.21,0,0,1,.55.13c.25.07,1.48.34.34.32a5.7,5.7,0,0,1-.82,0,.35.35,0,0,1-.11,0c-.13,0-.25,0-.38,0l0,0c-.2,0-.41,0-.6,0,0,0,0,0,0,0a.37.37,0,0,0-.18,0,.71.71,0,0,1-.2,0c-.23,0-.63,0-.9-.08l-.22-.06c-.13,0-.16.06-.29,0a1,1,0,0,0-.34,0c-.06,0-.61,0-.66,0-.65,0-1,0-1.79,0a2.47,2.47,0,0,0-.47,0c-.11,0-.23,0-.34,0L15,28.4c-.16,0-.48.2.14.22l.18,0c.08,0,.15,0,.24,0h0s0,0,.07,0a3.08,3.08,0,0,1,.43,0C16.45,28.74,17.46,28.93,16.77,29Z"/><text class="cls-5" transform="translate(41.89 15.98)">금산군청소년상담복지센터</text><text class="cls-6" transform="translate(41.89 37.21)">금산군학교밖청소년지원센터</text></g></g></svg>